HIERARCHY
ROOT Hips
{
	OFFSET 0.00000 0.00000 0.00000
	CHANNELS 6 Xposition Yposition Zposition Zrotation Yrotation Xrotation 
	JOINT LHipJoint
	{
		OFFSET 0 0 0
		CHANNELS 3 Zrotation Yrotation Xrotation
		JOINT LeftHip
		{
			OFFSET 1.74857 -1.85566 0.69197
			CHANNELS 3 Zrotation Yrotation Xrotation
			JOINT LeftKnee
			{
				OFFSET 2.40003 -6.59403 0.00000
				CHANNELS 3 Zrotation Yrotation Xrotation
				JOINT LeftAnkle
				{
					OFFSET 2.82169 -7.75254 0.00000
					CHANNELS 3 Zrotation Yrotation Xrotation
					JOINT LeftToe
					{
						OFFSET 0.16466 -0.45240 2.26890
						CHANNELS 3 Zrotation Yrotation Xrotation
						End Site
						{
							OFFSET 0.00000 -0.00000 1.16486
						}
					}
				}
			}
		}
	}
	JOINT RHipJoint
	{
		OFFSET 0 0 0
		CHANNELS 3 Zrotation Yrotation Xrotation
		JOINT RightHip
		{
			OFFSET -1.64169 -1.85566 0.69197
			CHANNELS 3 Zrotation Yrotation Xrotation
			JOINT RightKnee
			{
				OFFSET -2.41814 -6.64379 0.00000
				CHANNELS 3 Zrotation Yrotation Xrotation
				JOINT RightAnkle
				{
					OFFSET -2.80588 -7.70911 0.00000
					CHANNELS 3 Zrotation Yrotation Xrotation
					JOINT RightToe
					{
						OFFSET -0.19098 -0.52472 2.25401
						CHANNELS 3 Zrotation Yrotation Xrotation
						End Site
						{
							OFFSET -0.00000 -0.00000 1.16333
						}
					}
				}
			}
		}
	}
	JOINT lowerback
	{
		OFFSET 0 0 0
		CHANNELS 3 Zrotation Yrotation Xrotation
		JOINT Chest
		{
			OFFSET -0.02828 2.14690 -0.11061
			CHANNELS 3 Zrotation Yrotation Xrotation
			JOINT Chest2
			{
				OFFSET -0.00167 2.15299 0.00759
				CHANNELS 3 Zrotation Yrotation Xrotation
				JOINT lowerneck
				{
					OFFSET 0 0 0
					CHANNELS 3 Zrotation Yrotation Xrotation
					JOINT Neck
					{
						OFFSET -0.09296 1.90118 0.07197
						CHANNELS 3 Zrotation Yrotation Xrotation
						JOINT Head
						{
							OFFSET 0.08490 1.89526 -0.24604
							CHANNELS 3 Zrotation Yrotation Xrotation
							End Site
							{
								OFFSET 0.03186 1.92109 -0.09483
							}
						}
					}
				}
				JOINT LeftCollar
				{
					OFFSET 0 0 0
					CHANNELS 3 Zrotation Yrotation Xrotation
					JOINT LeftShoulder
					{
						OFFSET 3.21569 1.44644 -0.03720
CHANNELS 3 Zrotation Xrotation Yrotation
						JOINT LeftElbow
						{
OFFSET 0 -5.476510 -0.000000
CHANNELS 3 Zrotation Xrotation Yrotation
							JOINT LeftWrist
							{
OFFSET 0 -3.090580 -0.000000
CHANNELS 3 Zrotation Xrotation Yrotation
								JOINT lhand
								{
									OFFSET 0 0 0
CHANNELS 3 Zrotation Xrotation Yrotation
									JOINT LFingers
									{
OFFSET 0 -0.771610 -0.000000
CHANNELS 3 Zrotation Xrotation Yrotation
										End Site
										{
OFFSET 0 -0.622090 -0.000000
										}
									}
								}
								JOINT LThumb
								{
OFFSET 0 0.000000 0.000000
CHANNELS 3 Zrotation Xrotation Yrotation
									End Site
									{
OFFSET 0 -0.631590 0.631590
									}
								}
							}
						}
					}
				}
				JOINT RightCollar
				{
					OFFSET 0 0 0
					CHANNELS 3 Zrotation Yrotation Xrotation
					JOINT RightShoulder
					{
						OFFSET -3.38693 1.28904 -0.07093
CHANNELS 3 Zrotation Xrotation Yrotation
						JOINT RightElbow
						{
OFFSET 0 -5.141820 -0.000000
CHANNELS 3 Zrotation Xrotation Yrotation
							JOINT RightWrist
							{
OFFSET 0 -3.355650 -0.000000
CHANNELS 3 Zrotation Xrotation Yrotation
								JOINT rhand
								{
									OFFSET 0 0 0
CHANNELS 3 Zrotation Xrotation Yrotation
									JOINT RFingers
									{
OFFSET 0 -0.801040 -0.000000
CHANNELS 3 Zrotation Xrotation Yrotation
										End Site
										{
OFFSET 0 -0.645820 -0.000000
										}
									}
								}
								JOINT RThumb
								{
OFFSET 0 0.000000 0.000000
CHANNELS 3 Zrotation Xrotation Yrotation
									End Site
									{
OFFSET 0 -0.655680 0.655680
									}
								}
							}
						}
					}
				}
			}
		}
	}
}
MOTION
Frames: 12
Frame Time: 0.008333333333333333
-1.558446 17.996726 -1.149309 3.184620 6.528189 0.452428 0.000000 0.000000 0.000000 -16.980276 -4.936228 -7.160322 1.013292 6.404602 17.962911 0.113243 9.490750 -15.313827 0.826832 -5.799273 -16.203684 0.000000 0.000000 0.000000 20.302763 0.573660 -11.455991 -1.929712 -8.718034 24.917156 -0.520317 -12.074563 -22.835843 -0.000294 -0.087736 0.241033 -0.122014 0.283746 7.052233 2.198204 0.402096 3.287401 2.301531 0.187853 -0.579952 -6.767820 -4.419220 -0.017900 3.178133 -5.927462 4.863695 2.071551 -3.020029 1.868568 0.000000 0.000000 0.000000 36.451078 -19.271992 -32.654120 60.085735 -56.329923 34.412997 23.843852 -38.201465 -26.919724 0.000000 0.000000 0.000000 -7.125000 0.000000 0.000000 -7.191988 58.872074 2.446681 0.000000 0.000000 0.000000 -13.439705 -0.976367 5.620954 -103.609815 -59.288173 -71.758229 -42.454088 -84.693171 -22.665989 0.000000 0.000000 0.000000 7.125000 0.000000 0.000000 -8.137346 0.729901 -8.115652
-1.701027 18.047526 -0.776057 2.971905 13.148331 -0.245408 0.000000 0.000000 0.000000 -16.296979 -6.946083 -5.104438 0.893719 6.025425 16.858169 0.108662 6.951169 -12.156403 0.929015 -6.138255 -17.186679 0.000000 0.000000 0.000000 21.664781 -1.444605 -6.609071 -1.361784 -7.386180 20.864639 -0.349302 -16.438554 -26.346682 -0.059401 -1.572841 4.326503 1.208331 2.264851 4.594359 1.207842 3.096764 1.061955 0.383382 1.543937 -1.484399 -3.388517 2.606119 -0.926451 2.623419 3.445896 6.489840 1.480612 1.706742 2.093266 0.000000 0.000000 0.000000 58.124893 -40.160210 8.728448 88.192902 -59.976974 58.435321 16.378251 -52.711237 -20.395162 0.000000 0.000000 0.000000 -7.125000 0.000000 0.000000 -12.149306 50.764808 1.748039 0.000000 0.000000 0.000000 -10.861290 5.923190 17.090598 -98.398022 -59.731793 -67.266336 -41.819039 -79.371964 -22.747902 0.000000 0.000000 0.000000 7.125000 0.000000 0.000000 -7.745828 0.851770 -7.700849
-1.606669 18.000359 -0.416491 4.021870 16.096202 -0.596313 0.000000 0.000000 0.000000 -18.044267 -6.775172 -1.919113 0.638786 5.113401 14.232378 0.151972 6.546238 -12.472260 1.088332 -6.629974 -18.623628 0.000000 0.000000 0.000000 20.501930 -2.990713 -5.482975 -1.561051 -7.884659 22.364226 -0.615186 -16.852588 -28.836007 -0.045927 -1.383261 3.803929 2.669470 4.568593 4.001388 -0.342290 6.186683 1.607028 -2.075676 3.108900 -0.261419 -0.421066 11.809371 1.914251 2.086299 15.707146 8.762697 0.913718 7.878280 2.242304 0.000000 0.000000 0.000000 49.769997 -24.434084 32.747971 155.464303 -35.723325 111.981821 15.394146 -74.145096 -19.418571 0.000000 0.000000 0.000000 -7.125000 0.000000 0.000000 -12.734489 49.633962 1.476439 0.000000 0.000000 0.000000 -7.609417 10.364850 21.274893 -99.421815 -59.661916 -68.150268 -40.849722 -75.275288 -23.196630 0.000000 0.000000 0.000000 7.125000 0.000000 0.000000 -7.076010 0.644939 -7.050093
-1.697034 17.920439 -0.321636 1.468013 21.987853 -1.868648 0.000000 0.000000 0.000000 -14.867436 -9.493810 -5.063532 1.249420 7.086893 19.973053 0.358558 1.652650 -12.036046 1.258067 -7.110035 -20.041813 0.000000 0.000000 0.000000 23.720414 -6.708857 -5.183196 -1.473041 -7.669269 21.714006 -0.687849 -18.371594 -31.043426 -0.089983 -1.934356 5.324300 2.090493 3.705240 3.453753 -0.104347 5.001656 2.321140 -1.405503 2.530832 0.640469 -5.559259 0.904112 1.031388 7.053711 0.805235 9.830122 3.357833 0.443934 2.964212 0.000000 0.000000 0.000000 49.897153 -17.344976 26.642291 149.732211 -41.117915 108.413275 17.667478 -70.809998 -20.563078 0.000000 0.000000 0.000000 -7.125000 0.000000 0.000000 -10.958622 51.145467 1.676158 0.000000 0.000000 0.000000 -9.196500 10.850379 24.261208 -97.625259 -59.779159 -66.598757 -40.625947 -74.086530 -23.031041 0.000000 0.000000 0.000000 7.125000 0.000000 0.000000 -6.980384 0.916129 -6.919632
-1.666071 17.925464 -0.386782 1.345513 22.895270 -1.775969 0.000000 0.000000 0.000000 -14.790446 -9.551346 -5.671790 1.251543 7.092566 19.989954 0.335233 0.547347 -11.148268 1.049699 -6.515089 -18.286588 0.000000 0.000000 0.000000 23.706377 -7.023747 -5.678010 -1.487190 -7.704397 21.819810 -0.622519 -18.900368 -31.221556 -0.086732 -1.899879 5.228974 1.412226 3.107045 3.895481 0.444529 4.193670 2.334680 -0.480165 2.112580 0.284691 -7.905796 -3.434046 2.398459 9.744386 -5.340423 10.363511 4.147071 -2.606477 3.135980 0.000000 0.000000 0.000000 53.500320 -19.733533 26.366968 137.653994 -49.398398 99.796647 18.742075 -69.278407 -21.453158 0.000000 0.000000 0.000000 -7.125000 0.000000 0.000000 -10.229824 52.230803 1.836596 0.000000 0.000000 0.000000 -11.799036 9.889122 27.592369 -96.825297 -59.823221 -65.907424 -39.989143 -71.696306 -22.834356 0.000000 0.000000 0.000000 7.125000 0.000000 0.000000 -6.646005 1.356955 -6.531172
-1.528827 17.900344 -0.444865 1.241498 19.087915 -1.601003 0.000000 0.000000 0.000000 -14.931292 -7.981790 -6.595016 1.461657 7.641025 21.629008 0.441057 1.556628 -13.207174 1.037726 -6.479011 -18.180727 0.000000 0.000000 0.000000 23.080014 -5.865810 -6.678410 -1.682714 -8.171388 23.235796 -0.631173 -17.133156 -29.264778 -0.013237 -0.743674 2.043794 2.131399 2.963792 5.059644 0.486725 4.047051 3.023533 -0.874002 2.053526 0.390041 -7.126209 -5.242608 2.020819 8.705582 -7.697619 10.638491 3.600153 -3.767563 3.435905 0.000000 0.000000 0.000000 43.031614 -6.645924 34.116726 151.779072 -39.318555 109.736566 16.736266 -73.740646 -20.024434 0.000000 0.000000 0.000000 -7.125000 0.000000 0.000000 -11.666886 50.450751 1.586004 0.000000 0.000000 0.000000 -10.252172 12.348596 29.653939 -100.360733 -59.590476 -68.960307 -39.469462 -69.165865 -22.834843 0.000000 0.000000 0.000000 7.125000 0.000000 0.000000 -6.337310 1.522021 -6.205039
-1.562382 17.899564 -0.506405 1.075881 19.117095 -1.653878 0.000000 0.000000 0.000000 -14.646364 -8.266803 -6.867020 1.481622 7.690541 21.778095 0.427280 1.522391 -12.994753 1.032524 -6.463159 -18.134289 0.000000 0.000000 0.000000 23.267833 -6.119031 -7.179559 -1.714276 -8.243626 23.456493 -0.676775 -16.723137 -29.126360 -0.018662 -0.881976 2.424172 1.771309 2.274486 5.774538 1.122420 3.130944 3.358424 -0.008213 1.587303 0.253860 -7.566748 -5.548720 2.252561 7.344599 -7.962349 9.871558 3.256721 -3.974080 3.161507 0.000000 0.000000 0.000000 45.217773 -9.476571 30.169539 148.004048 -42.543965 107.261924 17.586109 -71.403420 -20.120516 0.000000 0.000000 0.000000 -7.125000 0.000000 0.000000 -10.878688 50.684702 1.539637 0.000000 0.000000 0.000000 -12.083956 10.911203 31.263831 -100.133769 -59.608407 -68.764606 -39.763391 -68.260624 -23.256138 0.000000 0.000000 0.000000 7.125000 0.000000 0.000000 -6.422302 0.932032 -6.357196
-1.623898 17.914389 -0.651579 1.898956 17.896136 -0.257074 0.000000 0.000000 0.000000 -15.230429 -8.000099 -8.328691 1.414622 7.522321 21.272263 0.362373 2.678201 -12.673734 1.077723 -6.598727 -18.531952 0.000000 0.000000 0.000000 22.445000 -5.105375 -9.983212 -1.978269 -8.820636 25.235885 -0.758830 -15.558928 -28.448441 -0.020681 -0.928643 2.552561 1.671701 2.170524 6.772842 1.330435 3.004883 3.920912 0.239403 1.524423 0.262621 -7.729850 -6.051326 2.614146 6.464478 -8.502577 7.812501 3.335669 -4.301993 2.768844 0.000000 0.000000 0.000000 41.610538 -7.444838 20.716769 146.247704 -43.899894 106.058799 18.413304 -65.240609 -19.754647 0.000000 0.000000 0.000000 -7.125000 0.000000 0.000000 -9.949378 50.447431 1.347294 0.000000 0.000000 0.000000 -13.250074 10.035257 31.994758 -99.431621 -59.660987 -68.158781 -39.758429 -64.724683 -23.263176 0.000000 0.000000 0.000000 7.125000 0.000000 0.000000 -6.417885 0.925361 -6.353409
-1.593232 17.932418 -0.796019 1.963567 15.096190 0.677249 0.000000 0.000000 0.000000 -15.018720 -7.347741 -11.255263 1.789506 8.413097 23.975929 0.366884 3.292777 -13.131645 0.914906 -6.094090 -17.057762 0.000000 0.000000 0.000000 22.112740 -3.324870 -11.593245 -2.053853 -8.977314 25.724425 -0.607726 -14.792867 -26.495042 -0.001865 -0.278154 0.764337 3.137379 1.645414 6.639993 2.370701 2.396220 3.618279 0.525788 1.226571 0.038225 -8.050394 -7.492414 1.407481 6.813355 -10.220749 3.063286 3.466150 -5.140300 1.582907 0.000000 0.000000 0.000000 28.228703 6.013754 -33.957936 114.738543 -57.554376 81.248055 15.978752 -38.030752 -22.228508 0.000000 0.000000 0.000000 -7.125000 0.000000 0.000000 -13.272701 52.524307 2.493960 0.000000 0.000000 0.000000 -28.399950 7.256574 60.714117 -99.104993 -59.684015 -67.876794 -31.622104 -57.164313 -18.765447 0.000000 0.000000 0.000000 7.125000 0.000000 0.000000 -2.206995 8.240238 -1.870478
-1.285351 18.082520 -0.700345 2.895541 4.847799 1.488739 0.000000 0.000000 0.000000 -15.844546 -7.675190 -6.129107 1.234984 7.046660 19.853896 0.613384 2.617180 -15.974944 1.315113 -7.263682 -20.498886 0.000000 0.000000 0.000000 19.965844 2.377653 -8.453548 -1.473204 -7.669749 21.715447 -0.322789 -13.150145 -22.175520 -0.012743 0.727017 -1.997911 1.575746 1.275883 5.099188 1.680084 1.816367 1.102431 0.723747 0.902004 -1.729703 -6.553532 -5.612236 -0.640151 5.681049 -7.530493 2.222294 2.830284 -3.761136 1.323310 0.000000 0.000000 0.000000 12.322331 19.948137 -54.285065 99.936489 -59.623616 68.594403 10.265599 -22.041787 -18.627134 0.000000 0.000000 0.000000 -7.125000 0.000000 0.000000 -17.239068 48.110216 1.360566 0.000000 0.000000 0.000000 -42.147299 -11.574680 71.212507 -143.563836 -45.806462 -104.164103 -10.519374 -51.003226 -16.380464 0.000000 0.000000 0.000000 7.125000 0.000000 0.000000 11.494424 13.572050 8.655580
-0.804339 17.836340 -0.997228 3.818511 2.108252 0.807081 0.000000 0.000000 0.000000 -18.618981 -6.508566 -8.292789 1.609718 8.000790 22.716663 0.629636 2.908888 -16.324439 0.903475 -6.057293 -16.950920 0.000000 0.000000 0.000000 16.559719 2.539001 -14.958132 -2.998131 -10.691907 31.247945 -0.745426 -9.603702 -22.486706 -0.350910 3.805027 -10.528764 -1.705302 1.259248 7.169424 1.115533 1.579530 1.851235 1.965993 0.794727 -2.184324 -5.921016 -4.967479 -0.354336 4.586557 -6.664553 2.301310 2.379839 -3.337631 1.166592 0.000000 0.000000 0.000000 15.668034 14.362240 -62.724646 102.945669 -59.357187 71.187055 13.573326 -21.090854 -18.148175 0.000000 0.000000 0.000000 -7.125000 0.000000 0.000000 -13.996658 48.106503 1.092675 0.000000 0.000000 0.000000 -25.632233 -21.838172 31.415718 -154.065211 -37.144038 -111.151586 -15.980967 -52.475764 -20.784322 0.000000 0.000000 0.000000 7.125000 0.000000 0.000000 8.017580 8.605534 6.795839
-0.378951 17.566078 -1.501968 4.233090 -0.975722 -0.545926 0.000000 0.000000 0.000000 -19.956231 -4.485460 -14.423116 3.065335 10.800065 31.608555 0.933384 1.004978 -18.643771 0.797432 -5.699991 -15.916295 0.000000 0.000000 0.000000 14.061643 3.849655 -19.802567 -4.409251 -12.685956 38.204088 -1.031940 -6.183239 -22.371353 -0.267605 3.327706 -9.192474 -1.969658 2.850021 10.999664 0.763448 3.589383 5.026756 1.471891 1.757208 -1.086546 -6.182770 -5.235927 1.039665 4.449853 -7.098756 2.786464 2.405304 -3.573635 1.108822 0.000000 0.000000 0.000000 16.984110 9.275355 -61.431754 103.689902 -59.279867 71.827090 15.242273 -17.965440 -17.881854 0.000000 0.000000 0.000000 -7.125000 0.000000 0.000000 -12.347676 48.077212 0.950929 0.000000 0.000000 0.000000 -15.010676 -27.251117 21.889326 -138.155184 -49.125411 -100.176781 -23.072387 -63.326854 -24.857229 0.000000 0.000000 0.000000 7.125000 0.000000 0.000000 3.920142 3.306043 3.696317
